<svg xmlns="http://www.w3.org/2000/svg" viewBox="0 0 1117 517" width="1117" height="517">
  <g fill="#000000" fill-rule="evenodd" transform="scale(1.1 1)">
    <path d="M 237 289 L 236 290 L 235 290 L 235 291 L 230 296 L 230 298 L 229 299 L 229 301 L 228 302 L 228 305 L 229 306 L 229 308 L 230 309 L 230 310 L 231 311 L 231 312 L 239 320 L 239 321 L 243 325 L 243 326 L 244 327 L 244 328 L 245 329 L 245 330 L 246 331 L 246 332 L 248 334 L 248 335 L 249 336 L 249 338 L 250 339 L 250 341 L 251 342 L 251 343 L 252 344 L 252 348 L 253 349 L 253 351 L 254 352 L 254 355 L 255 356 L 255 357 L 256 358 L 256 363 L 257 364 L 257 367 L 258 368 L 258 369 L 259 370 L 259 372 L 260 373 L 260 375 L 261 376 L 261 379 L 262 380 L 262 381 L 263 382 L 263 384 L 266 387 L 266 389 L 267 390 L 267 392 L 268 393 L 268 395 L 269 396 L 269 398 L 270 399 L 270 400 L 271 401 L 271 402 L 272 403 L 272 404 L 273 405 L 273 406 L 276 409 L 276 410 L 277 411 L 277 412 L 280 415 L 281 415 L 282 416 L 285 416 L 286 417 L 289 417 L 290 416 L 293 416 L 297 412 L 297 411 L 298 410 L 298 403 L 297 402 L 297 400 L 295 398 L 295 397 L 294 396 L 294 395 L 293 394 L 293 392 L 291 390 L 291 389 L 290 388 L 290 387 L 289 386 L 289 384 L 288 383 L 288 382 L 287 381 L 287 378 L 286 377 L 286 374 L 285 373 L 285 370 L 284 369 L 284 368 L 283 367 L 283 366 L 282 365 L 282 357 L 283 356 L 283 353 L 293 343 L 299 343 L 300 344 L 301 344 L 302 345 L 304 345 L 305 346 L 306 346 L 308 348 L 309 348 L 311 350 L 312 350 L 313 351 L 314 351 L 315 352 L 316 352 L 317 353 L 318 353 L 320 355 L 320 356 L 326 362 L 326 363 L 327 364 L 327 365 L 328 366 L 328 369 L 329 370 L 329 371 L 330 372 L 330 374 L 331 375 L 331 378 L 332 379 L 332 383 L 333 384 L 333 386 L 334 387 L 334 388 L 336 390 L 336 391 L 337 392 L 337 393 L 338 394 L 338 400 L 339 401 L 339 404 L 340 405 L 340 407 L 341 408 L 341 410 L 342 411 L 342 412 L 343 413 L 343 414 L 344 415 L 344 416 L 349 421 L 349 422 L 350 423 L 350 424 L 351 424 L 356 429 L 357 429 L 360 432 L 361 432 L 362 433 L 363 433 L 364 434 L 366 434 L 367 435 L 369 435 L 370 434 L 371 434 L 372 433 L 375 433 L 377 431 L 377 428 L 378 427 L 378 423 L 377 422 L 377 421 L 373 417 L 373 416 L 372 415 L 372 414 L 368 410 L 368 409 L 366 407 L 366 406 L 364 404 L 364 403 L 363 402 L 363 401 L 362 400 L 362 399 L 361 398 L 361 397 L 360 396 L 360 394 L 361 393 L 361 392 L 360 391 L 360 390 L 358 388 L 358 387 L 357 386 L 357 385 L 356 384 L 357 383 L 356 382 L 356 381 L 354 379 L 354 378 L 353 377 L 353 375 L 352 374 L 352 372 L 351 371 L 351 369 L 350 368 L 350 365 L 349 364 L 349 362 L 348 361 L 348 360 L 347 359 L 347 355 L 346 354 L 346 351 L 345 350 L 345 349 L 344 348 L 344 347 L 343 346 L 343 345 L 342 344 L 342 342 L 340 340 L 340 338 L 339 337 L 339 336 L 338 335 L 338 334 L 337 333 L 337 332 L 336 331 L 336 330 L 333 327 L 333 326 L 325 318 L 324 318 L 322 316 L 320 316 L 319 315 L 318 315 L 317 314 L 315 314 L 314 313 L 311 313 L 310 312 L 299 312 L 298 311 L 295 311 L 293 313 L 292 313 L 287 318 L 286 318 L 284 320 L 284 322 L 282 324 L 282 325 L 280 327 L 280 329 L 279 330 L 279 331 L 276 334 L 275 334 L 274 335 L 269 335 L 268 334 L 267 334 L 266 333 L 266 332 L 265 331 L 265 330 L 264 329 L 264 328 L 263 327 L 263 323 L 262 322 L 262 320 L 261 319 L 261 316 L 260 315 L 260 310 L 259 309 L 259 308 L 257 306 L 257 305 L 256 304 L 256 303 L 255 302 L 255 301 L 254 300 L 254 299 L 252 297 L 252 296 L 247 291 L 246 291 L 245 290 L 243 290 L 242 289 Z M 726 287 L 725 288 L 722 288 L 721 289 L 719 289 L 718 290 L 718 291 L 717 292 L 717 295 L 716 296 L 716 298 L 715 299 L 715 300 L 714 301 L 714 331 L 713 332 L 713 334 L 712 335 L 712 336 L 711 337 L 711 342 L 710 343 L 710 345 L 709 346 L 709 350 L 708 351 L 708 353 L 707 354 L 707 362 L 706 363 L 706 364 L 705 365 L 705 369 L 704 370 L 704 372 L 703 373 L 703 375 L 702 376 L 702 379 L 701 380 L 701 381 L 700 382 L 700 384 L 699 385 L 699 390 L 698 391 L 698 403 L 697 404 L 697 409 L 696 410 L 696 420 L 697 421 L 697 422 L 701 426 L 702 426 L 703 427 L 704 427 L 705 428 L 706 428 L 707 427 L 709 427 L 710 426 L 713 426 L 714 425 L 715 425 L 718 422 L 718 421 L 719 420 L 719 418 L 720 417 L 720 411 L 719 410 L 719 408 L 718 407 L 718 405 L 719 404 L 719 398 L 720 397 L 720 396 L 721 395 L 721 393 L 722 392 L 722 379 L 723 378 L 723 377 L 724 376 L 724 373 L 725 372 L 725 371 L 726 370 L 726 369 L 727 368 L 727 366 L 728 365 L 728 363 L 730 361 L 730 360 L 731 359 L 731 354 L 732 353 L 732 352 L 733 351 L 733 350 L 736 347 L 736 345 L 737 344 L 737 343 L 745 335 L 746 335 L 747 334 L 748 334 L 749 333 L 762 333 L 763 334 L 765 334 L 767 336 L 768 336 L 775 343 L 775 344 L 777 346 L 777 348 L 778 349 L 778 358 L 779 359 L 779 363 L 780 364 L 780 374 L 781 375 L 781 381 L 780 382 L 780 383 L 778 385 L 778 386 L 777 387 L 777 390 L 776 391 L 776 394 L 775 395 L 775 401 L 774 402 L 774 403 L 773 404 L 773 407 L 772 408 L 772 409 L 773 410 L 773 412 L 774 413 L 774 414 L 775 415 L 775 416 L 777 418 L 777 419 L 779 421 L 780 421 L 781 422 L 788 422 L 790 420 L 790 419 L 791 418 L 792 418 L 794 416 L 795 416 L 800 411 L 800 409 L 801 408 L 801 405 L 802 404 L 802 402 L 801 401 L 801 395 L 802 394 L 802 390 L 803 389 L 802 388 L 802 387 L 803 386 L 803 381 L 802 380 L 802 367 L 801 366 L 801 364 L 800 363 L 800 354 L 801 353 L 801 351 L 802 350 L 802 348 L 803 347 L 802 346 L 802 340 L 801 339 L 801 337 L 800 336 L 800 332 L 799 331 L 799 329 L 798 328 L 798 326 L 797 325 L 797 324 L 794 321 L 794 320 L 792 318 L 790 318 L 789 317 L 786 317 L 785 316 L 784 316 L 783 315 L 782 315 L 781 314 L 779 314 L 778 313 L 776 313 L 775 312 L 760 312 L 759 313 L 758 313 L 757 314 L 756 314 L 755 315 L 753 315 L 748 320 L 747 320 L 746 321 L 745 321 L 744 322 L 741 322 L 740 321 L 739 321 L 737 319 L 737 318 L 736 317 L 736 316 L 735 315 L 736 314 L 736 309 L 740 305 L 740 303 L 742 301 L 742 299 L 743 298 L 743 295 L 742 294 L 742 293 L 739 290 L 738 290 L 737 289 L 735 289 L 734 288 L 732 288 L 731 287 Z M 655 287 L 654 288 L 653 288 L 652 289 L 650 289 L 649 290 L 648 290 L 645 293 L 643 293 L 641 295 L 640 295 L 638 297 L 637 297 L 636 298 L 634 298 L 633 299 L 632 299 L 631 300 L 631 301 L 629 303 L 629 304 L 624 309 L 624 310 L 622 312 L 622 314 L 621 315 L 621 317 L 620 318 L 620 319 L 619 320 L 619 322 L 618 323 L 618 324 L 617 325 L 617 331 L 616 332 L 616 333 L 615 334 L 615 335 L 613 337 L 613 339 L 612 340 L 612 345 L 610 347 L 610 349 L 609 350 L 610 351 L 610 353 L 609 354 L 609 355 L 608 356 L 608 358 L 607 359 L 607 362 L 606 363 L 606 364 L 605 365 L 605 376 L 604 377 L 604 388 L 605 389 L 605 394 L 606 395 L 606 397 L 607 398 L 607 399 L 608 400 L 608 403 L 610 405 L 610 406 L 612 408 L 612 409 L 615 412 L 615 413 L 618 416 L 618 418 L 620 420 L 621 420 L 622 421 L 623 421 L 624 422 L 628 422 L 629 423 L 633 423 L 634 424 L 639 424 L 640 423 L 651 423 L 652 422 L 660 422 L 661 421 L 664 421 L 665 420 L 666 420 L 673 413 L 673 411 L 676 408 L 676 407 L 677 406 L 677 404 L 678 403 L 678 397 L 677 396 L 677 393 L 675 391 L 675 390 L 674 389 L 673 389 L 672 388 L 666 388 L 665 387 L 662 387 L 661 388 L 660 388 L 659 389 L 658 389 L 656 391 L 655 391 L 654 392 L 653 392 L 652 393 L 650 393 L 647 396 L 646 396 L 645 397 L 644 397 L 643 398 L 632 398 L 631 397 L 630 397 L 625 392 L 625 391 L 623 389 L 623 386 L 622 385 L 622 380 L 621 379 L 621 369 L 620 368 L 620 355 L 626 349 L 627 349 L 628 348 L 632 348 L 633 349 L 634 349 L 635 350 L 636 350 L 637 351 L 639 351 L 641 353 L 642 353 L 643 354 L 644 354 L 645 355 L 648 355 L 649 356 L 651 356 L 652 357 L 654 357 L 657 360 L 658 360 L 659 361 L 661 361 L 662 362 L 665 362 L 666 363 L 668 363 L 670 365 L 671 365 L 672 366 L 679 366 L 680 365 L 683 365 L 684 364 L 685 364 L 686 363 L 687 363 L 689 361 L 689 360 L 690 359 L 690 358 L 691 357 L 691 350 L 692 349 L 692 345 L 693 344 L 693 343 L 694 342 L 694 334 L 695 333 L 695 328 L 694 327 L 694 324 L 695 323 L 695 322 L 696 321 L 696 320 L 697 319 L 697 315 L 696 314 L 696 311 L 697 310 L 697 307 L 696 306 L 696 305 L 695 304 L 695 302 L 694 301 L 694 300 L 693 299 L 693 298 L 691 296 L 691 295 L 687 291 L 686 291 L 684 289 L 683 289 L 682 288 L 681 288 L 680 287 Z M 659 305 L 660 304 L 662 304 L 663 305 L 665 305 L 666 306 L 672 306 L 676 310 L 676 311 L 677 312 L 677 313 L 679 315 L 679 316 L 680 317 L 680 318 L 681 319 L 681 323 L 680 324 L 680 330 L 678 332 L 678 333 L 676 335 L 668 335 L 667 334 L 665 334 L 664 333 L 654 333 L 653 332 L 652 332 L 651 333 L 649 333 L 648 334 L 646 334 L 645 335 L 640 335 L 639 334 L 638 334 L 637 333 L 636 333 L 633 330 L 633 329 L 632 328 L 632 325 L 633 324 L 633 323 L 636 320 L 637 320 L 638 319 L 639 319 L 642 316 L 644 316 L 644 315 L 645 314 L 645 313 L 647 311 L 648 311 L 649 310 L 650 310 L 653 307 L 654 307 L 655 306 L 656 306 L 657 305 Z M 390 273 L 389 274 L 385 274 L 384 275 L 379 275 L 374 280 L 374 281 L 369 286 L 369 287 L 367 289 L 365 289 L 358 296 L 358 297 L 357 298 L 357 299 L 356 300 L 356 307 L 355 308 L 355 311 L 354 312 L 354 315 L 353 316 L 354 317 L 354 320 L 355 321 L 355 322 L 356 323 L 356 331 L 357 332 L 357 337 L 358 338 L 358 339 L 359 340 L 359 342 L 360 343 L 360 344 L 361 345 L 361 346 L 362 347 L 362 352 L 363 353 L 362 354 L 363 355 L 363 357 L 364 358 L 364 360 L 365 361 L 365 365 L 366 366 L 366 367 L 367 368 L 367 370 L 368 371 L 367 372 L 367 373 L 368 374 L 368 376 L 369 377 L 369 378 L 370 379 L 370 380 L 371 381 L 371 383 L 372 384 L 372 386 L 373 387 L 373 388 L 374 389 L 374 390 L 375 391 L 375 392 L 376 393 L 376 394 L 377 395 L 377 396 L 378 397 L 378 398 L 380 400 L 380 401 L 381 402 L 381 404 L 382 405 L 382 406 L 384 408 L 384 409 L 386 411 L 386 412 L 396 422 L 398 422 L 399 423 L 403 423 L 404 424 L 408 424 L 409 423 L 413 423 L 414 422 L 416 422 L 418 420 L 419 420 L 420 419 L 422 419 L 423 418 L 424 418 L 425 417 L 425 416 L 429 412 L 431 412 L 432 411 L 433 411 L 437 407 L 437 405 L 438 404 L 438 397 L 436 395 L 436 394 L 432 390 L 431 390 L 430 389 L 429 389 L 428 388 L 427 388 L 426 387 L 420 387 L 419 388 L 418 388 L 413 393 L 412 393 L 410 395 L 409 395 L 408 396 L 401 396 L 400 395 L 398 395 L 393 390 L 393 389 L 390 386 L 390 385 L 388 383 L 388 382 L 386 380 L 386 379 L 382 375 L 382 374 L 381 373 L 381 372 L 379 370 L 379 369 L 377 367 L 377 361 L 381 357 L 382 357 L 383 356 L 393 356 L 394 355 L 399 355 L 400 354 L 404 354 L 405 353 L 406 353 L 407 352 L 408 352 L 409 351 L 411 351 L 412 350 L 413 350 L 414 349 L 415 349 L 416 348 L 417 348 L 418 347 L 418 346 L 420 344 L 420 343 L 423 340 L 423 339 L 424 338 L 424 337 L 425 336 L 425 335 L 426 334 L 426 331 L 427 330 L 427 329 L 428 328 L 428 324 L 426 322 L 426 321 L 425 320 L 425 316 L 424 315 L 424 314 L 423 313 L 423 312 L 422 311 L 422 310 L 421 309 L 421 308 L 420 307 L 420 306 L 419 305 L 419 302 L 418 301 L 418 300 L 417 299 L 417 298 L 416 297 L 416 295 L 415 294 L 415 292 L 414 291 L 414 290 L 412 288 L 412 287 L 410 285 L 410 283 L 407 280 L 407 279 L 405 277 L 404 277 L 402 275 L 397 275 L 396 274 L 394 274 L 393 273 Z M 384 297 L 393 297 L 394 298 L 395 298 L 396 299 L 398 299 L 402 303 L 402 304 L 403 305 L 403 308 L 404 309 L 404 310 L 406 312 L 406 313 L 407 314 L 407 316 L 409 318 L 409 319 L 410 320 L 410 322 L 411 323 L 410 324 L 410 326 L 409 327 L 409 329 L 407 331 L 406 331 L 405 332 L 404 332 L 403 333 L 392 333 L 391 334 L 390 334 L 389 335 L 388 335 L 387 336 L 386 336 L 385 337 L 376 337 L 374 335 L 373 335 L 371 333 L 371 332 L 370 331 L 370 329 L 371 328 L 371 326 L 372 325 L 372 322 L 373 321 L 373 318 L 374 317 L 374 316 L 375 315 L 375 310 L 376 309 L 376 308 L 377 307 L 377 306 L 378 305 L 378 304 L 379 303 L 379 302 L 381 300 L 382 300 L 382 299 Z M 464 265 L 463 266 L 461 266 L 460 267 L 459 267 L 456 270 L 455 270 L 454 271 L 451 271 L 450 272 L 449 272 L 446 275 L 445 275 L 443 277 L 443 278 L 442 279 L 442 280 L 437 285 L 437 286 L 436 287 L 436 288 L 434 290 L 434 298 L 433 299 L 433 302 L 432 303 L 432 304 L 433 305 L 433 307 L 434 308 L 434 309 L 436 311 L 436 312 L 437 312 L 438 313 L 439 313 L 440 314 L 445 314 L 446 313 L 449 313 L 451 311 L 451 310 L 452 309 L 452 308 L 453 307 L 453 306 L 456 303 L 456 302 L 457 301 L 457 300 L 458 299 L 458 298 L 459 297 L 459 296 L 460 295 L 460 294 L 468 286 L 469 286 L 470 285 L 474 285 L 475 284 L 478 284 L 479 285 L 480 285 L 487 292 L 488 292 L 489 293 L 489 294 L 492 297 L 492 298 L 496 302 L 496 303 L 500 307 L 500 308 L 501 309 L 501 310 L 502 311 L 502 316 L 500 318 L 500 319 L 499 320 L 491 320 L 490 319 L 489 319 L 488 318 L 487 318 L 486 317 L 485 317 L 484 316 L 483 316 L 482 315 L 470 315 L 469 316 L 468 316 L 467 317 L 466 317 L 465 318 L 464 318 L 463 319 L 462 319 L 458 323 L 457 323 L 456 324 L 455 324 L 453 326 L 452 326 L 450 328 L 449 328 L 448 329 L 447 329 L 442 334 L 441 334 L 441 335 L 440 336 L 440 338 L 439 339 L 439 343 L 438 344 L 438 345 L 437 346 L 437 347 L 436 348 L 436 353 L 437 354 L 437 356 L 435 358 L 435 359 L 434 360 L 434 362 L 433 363 L 433 365 L 434 366 L 434 369 L 435 370 L 435 371 L 436 372 L 436 373 L 437 374 L 437 376 L 438 377 L 438 378 L 439 379 L 439 380 L 440 381 L 440 382 L 441 383 L 441 384 L 452 395 L 452 396 L 453 397 L 453 398 L 455 400 L 456 400 L 459 403 L 460 403 L 462 405 L 469 405 L 470 404 L 471 404 L 472 403 L 475 403 L 476 402 L 477 402 L 478 401 L 479 401 L 480 400 L 481 400 L 482 399 L 483 399 L 484 398 L 485 398 L 487 396 L 489 396 L 490 395 L 492 395 L 504 383 L 505 383 L 508 380 L 509 380 L 510 379 L 515 379 L 518 382 L 518 384 L 519 385 L 519 397 L 518 398 L 518 399 L 517 400 L 517 410 L 518 411 L 518 412 L 520 414 L 520 415 L 521 416 L 522 416 L 523 417 L 530 417 L 531 416 L 533 416 L 534 415 L 535 415 L 537 413 L 538 413 L 538 411 L 539 410 L 539 397 L 538 396 L 538 395 L 536 393 L 536 392 L 535 391 L 535 386 L 534 385 L 534 384 L 532 382 L 532 381 L 531 380 L 531 377 L 530 376 L 530 372 L 529 371 L 529 370 L 528 369 L 528 363 L 527 362 L 527 361 L 525 359 L 525 356 L 524 355 L 524 353 L 523 352 L 523 351 L 522 350 L 522 349 L 521 348 L 521 347 L 520 346 L 520 344 L 519 343 L 519 342 L 518 341 L 518 337 L 519 336 L 519 334 L 520 333 L 520 332 L 522 330 L 523 330 L 524 329 L 529 329 L 533 333 L 533 334 L 534 335 L 534 336 L 535 337 L 535 338 L 537 340 L 537 341 L 538 342 L 538 348 L 539 349 L 539 351 L 540 352 L 540 355 L 541 356 L 541 357 L 543 359 L 543 363 L 544 364 L 544 365 L 546 367 L 546 368 L 548 370 L 548 373 L 549 374 L 549 375 L 550 376 L 550 377 L 551 378 L 551 379 L 552 380 L 552 381 L 553 382 L 553 383 L 554 384 L 554 386 L 555 387 L 555 388 L 556 389 L 556 391 L 557 392 L 557 394 L 558 395 L 558 396 L 559 397 L 559 398 L 560 399 L 560 400 L 561 401 L 561 402 L 562 403 L 562 404 L 563 405 L 563 406 L 564 407 L 564 409 L 565 410 L 565 412 L 566 413 L 566 415 L 567 416 L 567 419 L 568 420 L 568 422 L 569 423 L 569 424 L 570 425 L 570 427 L 574 431 L 581 431 L 582 430 L 583 430 L 590 423 L 590 409 L 589 408 L 589 404 L 588 403 L 588 393 L 589 392 L 589 387 L 590 386 L 590 371 L 591 370 L 591 369 L 592 368 L 592 359 L 594 357 L 594 354 L 593 353 L 593 348 L 594 347 L 594 344 L 595 343 L 595 339 L 596 338 L 596 336 L 597 335 L 597 334 L 598 333 L 598 332 L 600 330 L 599 329 L 600 328 L 600 327 L 601 326 L 601 323 L 602 322 L 602 321 L 603 320 L 603 314 L 604 313 L 604 312 L 606 310 L 606 307 L 608 305 L 608 304 L 609 303 L 609 296 L 610 295 L 610 290 L 611 289 L 610 288 L 610 284 L 609 283 L 609 281 L 607 279 L 607 278 L 606 277 L 606 276 L 602 272 L 601 272 L 598 269 L 597 269 L 596 268 L 592 268 L 591 269 L 589 269 L 588 270 L 587 270 L 583 274 L 583 276 L 582 277 L 582 282 L 581 283 L 581 290 L 580 291 L 580 296 L 581 297 L 581 302 L 580 303 L 580 305 L 581 306 L 581 312 L 580 313 L 580 326 L 579 327 L 579 328 L 578 329 L 578 330 L 577 331 L 578 332 L 578 333 L 576 335 L 576 337 L 575 338 L 575 342 L 576 343 L 576 349 L 575 350 L 575 351 L 576 352 L 576 361 L 577 362 L 577 368 L 576 369 L 576 370 L 572 374 L 568 374 L 566 372 L 565 372 L 562 369 L 562 367 L 561 366 L 561 361 L 560 360 L 560 358 L 559 357 L 559 354 L 558 353 L 558 349 L 557 348 L 557 345 L 556 344 L 556 340 L 555 339 L 555 338 L 554 337 L 554 336 L 553 335 L 553 334 L 552 333 L 552 331 L 551 330 L 551 327 L 550 326 L 550 325 L 549 324 L 549 323 L 548 322 L 548 320 L 547 319 L 547 317 L 546 316 L 546 315 L 545 314 L 545 313 L 544 312 L 544 294 L 542 292 L 542 291 L 541 290 L 541 289 L 540 288 L 540 286 L 538 284 L 538 283 L 535 280 L 534 280 L 533 279 L 532 279 L 531 278 L 526 278 L 525 279 L 524 279 L 522 281 L 522 282 L 520 284 L 520 285 L 519 286 L 519 288 L 520 289 L 520 290 L 519 291 L 519 294 L 520 295 L 520 297 L 521 298 L 521 299 L 523 301 L 523 302 L 524 303 L 524 304 L 525 305 L 525 306 L 526 307 L 526 312 L 527 313 L 527 316 L 526 317 L 526 318 L 525 319 L 525 320 L 523 322 L 517 322 L 514 319 L 514 318 L 511 315 L 511 314 L 510 313 L 510 300 L 508 298 L 508 297 L 507 296 L 507 289 L 506 288 L 506 287 L 501 282 L 501 280 L 500 279 L 500 277 L 495 272 L 495 271 L 494 271 L 492 269 L 491 269 L 489 267 L 487 267 L 486 266 L 480 266 L 479 265 L 473 265 L 472 266 L 471 265 Z M 471 338 L 472 337 L 476 337 L 477 338 L 479 338 L 481 340 L 482 340 L 483 341 L 484 341 L 485 342 L 486 342 L 487 343 L 490 343 L 491 344 L 492 344 L 493 345 L 495 345 L 497 347 L 498 347 L 499 348 L 499 349 L 503 353 L 503 361 L 502 362 L 502 363 L 500 365 L 500 366 L 499 367 L 499 368 L 495 372 L 494 372 L 493 373 L 492 373 L 491 374 L 490 374 L 489 375 L 488 375 L 485 378 L 484 378 L 483 379 L 479 379 L 478 380 L 469 380 L 468 379 L 465 379 L 464 378 L 463 378 L 459 374 L 459 373 L 457 371 L 457 370 L 456 369 L 456 366 L 455 365 L 455 363 L 454 362 L 454 359 L 455 358 L 455 357 L 456 356 L 456 349 L 457 348 L 457 347 L 458 346 L 458 345 L 460 343 L 461 343 L 462 342 L 463 342 L 465 340 L 466 340 L 468 338 Z M 834 169 L 831 172 L 831 173 L 830 174 L 830 183 L 829 184 L 829 189 L 828 190 L 828 192 L 827 193 L 827 198 L 826 199 L 826 200 L 825 201 L 825 203 L 824 204 L 824 205 L 823 206 L 823 214 L 822 215 L 822 216 L 821 217 L 821 218 L 820 219 L 820 223 L 816 227 L 816 232 L 815 233 L 815 235 L 814 236 L 814 239 L 813 240 L 813 241 L 811 243 L 811 244 L 809 246 L 809 247 L 808 248 L 808 250 L 807 251 L 807 253 L 806 254 L 806 255 L 805 256 L 805 258 L 804 259 L 805 260 L 805 261 L 804 262 L 804 265 L 803 266 L 803 270 L 802 271 L 802 272 L 801 273 L 801 274 L 798 277 L 798 278 L 797 279 L 797 280 L 796 281 L 796 282 L 795 283 L 795 285 L 792 288 L 792 290 L 791 291 L 791 293 L 792 294 L 792 297 L 793 298 L 793 299 L 799 305 L 800 305 L 801 306 L 807 306 L 808 305 L 810 305 L 811 304 L 812 304 L 817 299 L 817 298 L 819 296 L 819 295 L 820 294 L 820 291 L 821 290 L 821 282 L 822 281 L 822 277 L 824 275 L 824 269 L 825 268 L 825 267 L 829 263 L 829 260 L 830 259 L 830 258 L 831 257 L 831 256 L 832 255 L 832 254 L 833 253 L 833 250 L 835 248 L 835 246 L 836 245 L 836 244 L 837 243 L 837 241 L 840 238 L 841 238 L 843 236 L 843 235 L 846 232 L 848 232 L 854 226 L 855 226 L 856 225 L 858 225 L 859 224 L 861 224 L 862 223 L 866 223 L 867 224 L 868 224 L 869 225 L 870 225 L 877 232 L 877 233 L 878 234 L 878 235 L 879 236 L 879 239 L 880 240 L 880 244 L 881 245 L 881 246 L 882 247 L 882 249 L 883 250 L 883 253 L 884 254 L 884 255 L 885 256 L 885 262 L 886 263 L 886 264 L 885 265 L 885 267 L 884 268 L 884 272 L 885 273 L 885 274 L 886 275 L 887 275 L 889 277 L 890 277 L 891 278 L 898 278 L 900 276 L 901 276 L 902 275 L 903 275 L 904 274 L 904 273 L 907 270 L 908 270 L 909 269 L 909 268 L 910 267 L 910 264 L 911 263 L 911 238 L 910 237 L 910 235 L 909 234 L 910 233 L 910 230 L 909 229 L 909 223 L 908 222 L 908 220 L 907 219 L 907 218 L 902 213 L 902 212 L 901 212 L 899 210 L 898 210 L 896 208 L 895 208 L 893 206 L 892 206 L 888 202 L 887 202 L 885 200 L 884 200 L 883 199 L 882 199 L 881 198 L 873 198 L 872 199 L 870 199 L 869 200 L 867 200 L 866 201 L 863 201 L 862 202 L 860 202 L 859 203 L 856 203 L 855 202 L 854 202 L 852 200 L 852 193 L 853 192 L 853 191 L 855 189 L 855 188 L 858 185 L 858 184 L 859 183 L 859 179 L 858 178 L 858 175 L 857 175 L 856 174 L 856 173 L 855 172 L 854 172 L 853 171 L 852 171 L 851 170 L 850 170 L 849 169 Z M 171 142 L 170 143 L 165 143 L 164 144 L 163 144 L 162 145 L 161 145 L 157 149 L 156 149 L 155 150 L 154 150 L 148 156 L 148 157 L 147 158 L 147 161 L 146 162 L 146 163 L 143 166 L 142 166 L 142 167 L 140 169 L 140 170 L 138 172 L 138 174 L 137 175 L 137 177 L 135 179 L 135 180 L 133 182 L 133 183 L 132 184 L 132 186 L 131 187 L 131 188 L 130 189 L 130 191 L 129 192 L 129 194 L 127 196 L 127 202 L 126 203 L 126 205 L 125 206 L 125 213 L 124 214 L 124 215 L 123 216 L 123 217 L 122 218 L 122 221 L 121 222 L 121 226 L 119 228 L 119 229 L 118 230 L 118 234 L 119 235 L 119 236 L 120 237 L 120 238 L 121 239 L 121 240 L 122 241 L 124 241 L 125 242 L 126 242 L 127 243 L 128 243 L 129 244 L 130 243 L 131 243 L 135 239 L 136 239 L 137 238 L 137 237 L 140 234 L 140 233 L 142 231 L 142 230 L 143 229 L 143 228 L 144 227 L 144 226 L 145 225 L 145 224 L 146 223 L 146 220 L 149 217 L 149 216 L 151 214 L 151 212 L 153 210 L 153 209 L 154 208 L 154 207 L 155 206 L 155 205 L 158 202 L 159 202 L 166 195 L 166 194 L 169 191 L 170 191 L 172 189 L 180 189 L 181 190 L 184 190 L 185 191 L 188 191 L 189 192 L 191 192 L 193 194 L 194 194 L 196 196 L 197 196 L 199 198 L 201 198 L 202 199 L 203 199 L 205 201 L 206 201 L 207 202 L 208 202 L 214 208 L 215 208 L 217 210 L 217 215 L 213 219 L 208 219 L 207 218 L 204 218 L 203 217 L 201 217 L 199 215 L 197 215 L 195 213 L 177 213 L 176 214 L 174 214 L 173 215 L 172 215 L 168 219 L 167 219 L 164 222 L 164 223 L 163 224 L 163 225 L 162 226 L 162 227 L 160 229 L 160 230 L 155 235 L 154 235 L 152 237 L 151 237 L 151 238 L 150 239 L 150 241 L 147 244 L 146 244 L 142 248 L 142 249 L 136 255 L 136 258 L 135 259 L 135 260 L 134 261 L 134 278 L 135 279 L 135 282 L 136 283 L 136 285 L 137 286 L 137 288 L 138 289 L 138 290 L 139 291 L 139 292 L 143 296 L 143 297 L 144 298 L 145 298 L 154 307 L 155 307 L 156 308 L 157 308 L 162 313 L 167 313 L 168 314 L 177 314 L 178 313 L 180 313 L 183 310 L 184 310 L 186 308 L 187 308 L 188 307 L 190 307 L 191 306 L 193 306 L 194 305 L 197 305 L 198 304 L 200 304 L 204 300 L 205 300 L 206 299 L 207 299 L 208 298 L 208 297 L 213 292 L 213 291 L 217 287 L 218 287 L 220 285 L 221 285 L 222 284 L 222 283 L 223 282 L 223 281 L 233 271 L 235 271 L 236 270 L 238 270 L 239 271 L 242 271 L 245 274 L 246 274 L 251 279 L 253 279 L 254 280 L 258 280 L 259 279 L 260 279 L 261 278 L 261 267 L 260 266 L 260 263 L 258 261 L 258 260 L 252 254 L 252 253 L 251 252 L 251 250 L 250 249 L 250 247 L 249 246 L 249 244 L 248 243 L 248 240 L 247 239 L 247 238 L 246 237 L 246 236 L 245 235 L 245 232 L 244 231 L 244 230 L 243 229 L 243 228 L 242 227 L 242 226 L 241 225 L 241 222 L 240 221 L 240 219 L 239 218 L 239 217 L 238 216 L 238 215 L 237 214 L 237 213 L 236 212 L 236 211 L 234 209 L 234 208 L 233 207 L 233 206 L 232 205 L 232 204 L 231 203 L 231 202 L 230 201 L 230 200 L 229 199 L 229 197 L 226 194 L 226 193 L 225 192 L 225 191 L 224 190 L 224 189 L 223 188 L 223 185 L 222 184 L 222 183 L 221 182 L 221 181 L 220 180 L 220 179 L 218 177 L 218 176 L 217 175 L 217 174 L 216 173 L 216 172 L 211 167 L 211 166 L 210 165 L 210 164 L 205 159 L 205 158 L 204 157 L 204 156 L 199 151 L 199 150 L 197 148 L 196 148 L 194 146 L 193 146 L 192 145 L 191 145 L 190 144 L 189 144 L 188 145 L 184 145 L 183 144 L 180 144 L 179 143 L 178 143 L 177 142 Z M 193 230 L 194 229 L 196 229 L 197 230 L 204 230 L 205 231 L 206 231 L 207 232 L 211 232 L 213 234 L 215 234 L 216 235 L 217 235 L 223 241 L 223 242 L 224 243 L 224 245 L 223 246 L 223 248 L 218 253 L 218 254 L 213 259 L 212 259 L 210 261 L 209 261 L 206 264 L 203 264 L 202 265 L 200 265 L 199 266 L 198 266 L 197 267 L 195 267 L 194 268 L 193 268 L 192 269 L 191 269 L 190 270 L 188 270 L 187 271 L 186 271 L 185 272 L 183 272 L 182 273 L 181 273 L 180 274 L 177 274 L 176 275 L 165 275 L 164 274 L 163 274 L 160 271 L 160 270 L 159 269 L 159 268 L 158 267 L 158 261 L 159 260 L 159 257 L 160 256 L 160 253 L 161 252 L 161 251 L 162 250 L 162 249 L 164 247 L 164 246 L 170 240 L 170 239 L 172 237 L 173 237 L 174 236 L 175 236 L 176 235 L 178 235 L 179 234 L 180 234 L 181 233 L 183 233 L 184 232 L 185 232 L 186 231 L 188 231 L 189 230 Z M 172 154 L 173 153 L 174 153 L 175 154 L 176 154 L 180 158 L 180 164 L 179 165 L 179 166 L 175 170 L 170 170 L 169 169 L 167 169 L 164 166 L 164 165 L 163 164 L 163 161 L 164 160 L 164 158 L 167 155 L 169 155 L 170 154 Z M 749 139 L 748 140 L 745 140 L 742 143 L 741 143 L 740 144 L 739 143 L 738 144 L 737 144 L 736 145 L 735 145 L 734 146 L 733 146 L 732 147 L 730 147 L 728 149 L 727 149 L 720 156 L 719 156 L 717 158 L 717 159 L 715 161 L 715 163 L 714 164 L 714 166 L 711 169 L 711 170 L 710 171 L 710 172 L 709 173 L 709 174 L 708 175 L 708 177 L 707 178 L 707 179 L 706 180 L 706 182 L 705 183 L 705 187 L 704 188 L 704 189 L 701 192 L 701 199 L 700 200 L 700 203 L 699 204 L 699 206 L 698 207 L 698 209 L 699 210 L 699 211 L 698 212 L 698 215 L 697 216 L 697 223 L 696 224 L 696 235 L 695 236 L 695 248 L 696 249 L 696 256 L 697 257 L 697 258 L 698 259 L 698 260 L 699 261 L 699 262 L 706 269 L 710 269 L 711 270 L 713 270 L 714 271 L 723 271 L 724 272 L 726 272 L 727 273 L 740 273 L 741 274 L 745 274 L 746 275 L 748 275 L 749 276 L 757 276 L 758 275 L 759 275 L 761 273 L 763 273 L 765 271 L 766 271 L 767 270 L 768 270 L 769 269 L 770 269 L 773 266 L 774 266 L 775 265 L 776 265 L 781 260 L 781 258 L 782 257 L 782 256 L 784 254 L 784 253 L 785 252 L 785 250 L 786 249 L 786 247 L 787 246 L 787 245 L 786 244 L 786 243 L 785 242 L 785 241 L 781 237 L 780 237 L 779 236 L 772 236 L 771 237 L 770 237 L 769 238 L 768 238 L 767 239 L 764 239 L 763 240 L 762 240 L 759 243 L 759 244 L 755 248 L 755 249 L 752 252 L 751 252 L 749 254 L 745 254 L 744 253 L 739 253 L 738 252 L 735 252 L 734 251 L 732 251 L 731 250 L 730 250 L 729 249 L 726 249 L 725 248 L 722 248 L 713 239 L 713 233 L 712 232 L 712 230 L 713 229 L 713 226 L 712 225 L 712 223 L 713 222 L 713 221 L 714 220 L 714 214 L 715 213 L 715 212 L 718 209 L 719 209 L 720 208 L 726 208 L 728 210 L 729 210 L 730 211 L 731 211 L 733 213 L 734 213 L 735 214 L 736 214 L 737 215 L 738 215 L 739 216 L 740 216 L 741 217 L 747 217 L 748 218 L 751 218 L 752 219 L 755 219 L 756 220 L 770 220 L 771 221 L 772 221 L 774 223 L 775 223 L 776 224 L 778 224 L 779 225 L 782 225 L 783 226 L 786 226 L 787 225 L 795 225 L 796 224 L 796 223 L 800 219 L 801 219 L 801 218 L 802 217 L 801 216 L 801 214 L 800 213 L 800 192 L 799 191 L 799 188 L 798 187 L 798 182 L 797 181 L 797 179 L 796 178 L 796 177 L 795 176 L 795 175 L 793 173 L 793 172 L 792 171 L 792 170 L 791 169 L 791 168 L 790 167 L 790 166 L 785 161 L 785 160 L 784 159 L 784 158 L 782 156 L 781 156 L 779 154 L 779 153 L 776 150 L 775 150 L 774 149 L 773 149 L 770 146 L 769 146 L 765 142 L 764 142 L 763 141 L 760 141 L 759 140 L 755 140 L 754 139 Z M 752 167 L 753 166 L 755 166 L 756 167 L 757 167 L 758 168 L 760 168 L 761 169 L 764 169 L 765 170 L 766 170 L 772 176 L 772 177 L 777 182 L 777 183 L 779 185 L 779 186 L 780 187 L 780 188 L 781 189 L 781 197 L 780 198 L 780 199 L 777 202 L 776 202 L 775 203 L 769 203 L 768 202 L 767 202 L 766 201 L 765 201 L 764 200 L 763 200 L 762 199 L 760 199 L 759 198 L 757 198 L 756 197 L 754 197 L 753 196 L 752 196 L 751 195 L 750 195 L 749 194 L 746 194 L 745 193 L 743 193 L 742 194 L 735 194 L 734 193 L 732 193 L 731 192 L 730 192 L 726 188 L 726 182 L 727 181 L 727 180 L 728 179 L 728 178 L 730 176 L 731 176 L 734 173 L 735 173 L 736 172 L 738 172 L 739 171 L 741 171 L 742 170 L 745 170 L 746 169 L 747 169 L 748 168 L 749 168 L 750 167 Z M 247 111 L 241 117 L 241 118 L 240 119 L 240 123 L 239 124 L 239 125 L 238 126 L 238 128 L 236 130 L 236 131 L 235 132 L 235 133 L 234 134 L 234 136 L 233 137 L 233 140 L 232 141 L 232 147 L 233 148 L 233 155 L 234 156 L 234 159 L 235 160 L 235 161 L 236 162 L 236 163 L 239 166 L 239 167 L 240 168 L 240 170 L 241 171 L 241 172 L 244 175 L 244 176 L 247 179 L 247 180 L 248 181 L 248 182 L 249 183 L 249 185 L 250 186 L 250 188 L 251 189 L 251 190 L 252 191 L 252 196 L 253 197 L 253 198 L 254 199 L 254 201 L 255 202 L 255 203 L 256 204 L 256 207 L 257 208 L 257 210 L 258 211 L 258 212 L 260 214 L 260 215 L 261 216 L 261 217 L 262 218 L 262 219 L 263 220 L 263 225 L 264 226 L 264 227 L 265 228 L 265 230 L 266 231 L 266 232 L 268 234 L 268 237 L 269 238 L 269 239 L 270 240 L 270 241 L 271 242 L 271 247 L 272 248 L 272 249 L 273 250 L 273 251 L 275 253 L 275 254 L 276 255 L 276 257 L 277 258 L 277 260 L 278 261 L 278 263 L 279 264 L 279 266 L 281 268 L 281 269 L 282 270 L 282 276 L 284 278 L 284 279 L 286 281 L 286 282 L 287 283 L 288 283 L 289 284 L 290 284 L 291 285 L 292 285 L 293 284 L 297 284 L 300 281 L 300 280 L 301 279 L 301 278 L 302 277 L 302 274 L 303 273 L 303 262 L 302 261 L 302 259 L 301 258 L 301 257 L 299 255 L 299 254 L 297 252 L 297 251 L 296 250 L 296 249 L 294 247 L 294 246 L 293 245 L 293 244 L 292 243 L 292 242 L 291 241 L 291 238 L 290 237 L 290 234 L 289 233 L 289 231 L 288 230 L 288 227 L 287 226 L 287 215 L 286 214 L 286 211 L 285 210 L 285 206 L 284 205 L 284 204 L 283 203 L 283 202 L 282 201 L 282 200 L 281 199 L 281 197 L 280 196 L 280 191 L 279 190 L 279 189 L 278 188 L 278 178 L 277 177 L 277 170 L 276 169 L 276 164 L 275 163 L 275 161 L 274 160 L 274 158 L 273 157 L 273 154 L 272 153 L 272 152 L 271 151 L 271 150 L 270 149 L 270 146 L 269 145 L 269 143 L 268 142 L 268 141 L 267 140 L 267 135 L 266 134 L 266 128 L 265 127 L 265 126 L 264 125 L 264 124 L 262 122 L 262 121 L 260 119 L 260 117 L 257 114 L 256 114 L 255 113 L 254 113 L 253 112 L 252 112 L 251 111 Z M 690 101 L 689 102 L 686 102 L 685 103 L 684 103 L 682 105 L 681 105 L 680 106 L 679 106 L 676 109 L 676 110 L 673 113 L 673 116 L 672 117 L 672 123 L 673 124 L 673 127 L 674 128 L 674 130 L 675 131 L 675 139 L 674 140 L 675 141 L 675 143 L 676 144 L 676 149 L 675 150 L 675 153 L 671 157 L 665 157 L 661 153 L 661 152 L 658 149 L 658 148 L 657 147 L 657 146 L 653 142 L 653 141 L 648 136 L 647 136 L 646 135 L 645 135 L 644 134 L 640 134 L 639 133 L 631 133 L 630 134 L 627 134 L 625 136 L 624 136 L 623 137 L 622 137 L 621 138 L 620 138 L 617 141 L 617 142 L 615 144 L 614 144 L 613 145 L 613 146 L 612 147 L 612 148 L 610 150 L 610 152 L 609 153 L 609 155 L 608 156 L 608 160 L 606 162 L 606 166 L 605 167 L 605 168 L 606 169 L 605 170 L 605 173 L 604 174 L 604 175 L 603 176 L 603 185 L 602 186 L 602 189 L 601 190 L 601 197 L 602 198 L 602 206 L 603 207 L 603 211 L 605 213 L 605 214 L 606 215 L 606 216 L 611 221 L 612 221 L 613 222 L 615 222 L 616 223 L 618 223 L 620 225 L 628 225 L 629 226 L 639 226 L 640 225 L 643 225 L 647 221 L 648 221 L 650 219 L 651 219 L 652 218 L 655 218 L 656 217 L 661 217 L 665 221 L 665 225 L 664 226 L 664 227 L 663 228 L 663 229 L 661 231 L 661 232 L 659 234 L 659 235 L 654 240 L 654 244 L 653 245 L 653 248 L 654 249 L 654 250 L 655 251 L 655 252 L 656 253 L 657 253 L 659 255 L 661 255 L 662 254 L 667 254 L 668 253 L 670 253 L 671 252 L 672 252 L 673 251 L 673 250 L 675 248 L 675 246 L 678 243 L 678 241 L 679 240 L 679 237 L 680 236 L 680 235 L 679 234 L 679 226 L 678 225 L 678 224 L 679 223 L 679 218 L 680 217 L 680 216 L 681 215 L 681 199 L 682 198 L 682 195 L 683 194 L 683 191 L 684 190 L 684 188 L 685 187 L 685 186 L 686 185 L 686 182 L 687 181 L 687 167 L 688 166 L 688 165 L 691 162 L 691 161 L 692 160 L 692 159 L 693 158 L 693 154 L 694 153 L 694 152 L 695 151 L 695 150 L 696 149 L 696 147 L 697 146 L 697 145 L 698 144 L 698 142 L 699 141 L 699 139 L 700 138 L 700 136 L 701 135 L 701 131 L 702 130 L 702 129 L 705 126 L 705 124 L 706 123 L 706 119 L 705 118 L 705 116 L 704 115 L 704 114 L 702 112 L 702 110 L 694 102 L 693 102 L 692 101 Z M 634 160 L 635 159 L 640 159 L 641 160 L 642 160 L 643 161 L 644 161 L 653 170 L 653 171 L 654 172 L 654 173 L 655 174 L 655 175 L 657 177 L 657 178 L 660 181 L 660 182 L 662 184 L 662 185 L 666 189 L 666 190 L 668 192 L 668 194 L 667 195 L 667 196 L 666 197 L 665 197 L 659 203 L 658 203 L 656 205 L 654 205 L 653 206 L 649 206 L 648 205 L 645 205 L 644 204 L 640 204 L 639 203 L 634 203 L 633 202 L 629 202 L 628 201 L 627 201 L 626 200 L 625 200 L 621 196 L 621 195 L 620 194 L 620 193 L 619 192 L 619 189 L 618 188 L 618 179 L 619 178 L 619 175 L 621 173 L 621 172 L 622 171 L 622 169 L 626 165 L 627 165 L 632 160 Z M 337 88 L 336 89 L 332 89 L 327 94 L 326 94 L 324 96 L 323 96 L 319 100 L 318 100 L 313 105 L 313 106 L 312 107 L 312 109 L 309 112 L 309 113 L 308 114 L 308 115 L 307 116 L 307 119 L 308 120 L 308 126 L 309 127 L 309 130 L 310 131 L 310 136 L 311 137 L 311 141 L 312 142 L 312 149 L 313 150 L 313 152 L 314 153 L 314 157 L 315 158 L 315 159 L 316 160 L 316 164 L 315 165 L 315 167 L 314 168 L 315 169 L 315 171 L 316 172 L 316 194 L 315 195 L 315 205 L 316 206 L 316 214 L 317 215 L 317 216 L 318 217 L 318 218 L 319 219 L 319 222 L 320 223 L 320 227 L 321 228 L 321 230 L 322 231 L 322 235 L 323 236 L 323 237 L 324 238 L 324 239 L 325 240 L 325 244 L 326 245 L 326 248 L 328 250 L 328 252 L 329 253 L 329 254 L 331 256 L 331 260 L 332 261 L 332 263 L 333 264 L 333 265 L 335 267 L 336 267 L 338 269 L 346 269 L 347 268 L 348 268 L 351 265 L 351 264 L 352 263 L 352 262 L 353 261 L 353 260 L 354 259 L 354 257 L 352 255 L 352 254 L 351 253 L 351 246 L 350 245 L 350 244 L 351 243 L 351 242 L 350 241 L 350 240 L 349 239 L 349 237 L 348 236 L 348 235 L 349 234 L 349 231 L 348 230 L 348 228 L 349 227 L 349 223 L 348 222 L 348 214 L 347 213 L 347 210 L 346 209 L 346 206 L 345 205 L 345 194 L 344 193 L 344 191 L 343 190 L 343 186 L 344 185 L 344 171 L 345 170 L 345 169 L 344 168 L 344 166 L 342 164 L 342 163 L 341 162 L 341 160 L 340 159 L 340 151 L 341 150 L 341 148 L 340 147 L 340 142 L 341 141 L 341 113 L 342 112 L 342 110 L 343 109 L 343 107 L 344 106 L 344 105 L 347 102 L 347 101 L 348 100 L 348 94 L 347 93 L 347 92 L 346 92 L 344 90 L 343 90 L 342 89 L 341 89 L 340 88 Z M 471 85 L 470 86 L 469 86 L 463 92 L 462 92 L 462 93 L 461 94 L 461 95 L 460 96 L 460 98 L 461 99 L 461 102 L 462 103 L 462 104 L 463 105 L 463 106 L 464 107 L 464 109 L 465 110 L 465 111 L 466 112 L 466 113 L 468 115 L 468 116 L 469 117 L 470 117 L 471 118 L 471 119 L 474 122 L 474 123 L 475 124 L 475 127 L 476 128 L 476 129 L 477 130 L 477 131 L 478 132 L 478 158 L 477 159 L 477 164 L 478 165 L 478 169 L 477 170 L 477 171 L 476 172 L 476 183 L 475 184 L 475 186 L 474 187 L 474 190 L 473 191 L 473 193 L 471 195 L 471 196 L 469 198 L 469 199 L 464 204 L 463 204 L 461 206 L 456 206 L 455 205 L 453 205 L 451 203 L 450 203 L 448 201 L 448 200 L 445 197 L 445 196 L 444 195 L 444 194 L 443 193 L 443 192 L 442 191 L 442 190 L 441 189 L 441 187 L 440 186 L 440 184 L 439 183 L 439 182 L 438 181 L 438 179 L 436 177 L 436 176 L 435 175 L 435 174 L 434 173 L 434 169 L 433 168 L 433 166 L 432 165 L 432 162 L 431 161 L 431 158 L 432 157 L 432 151 L 433 150 L 433 149 L 434 148 L 434 142 L 435 141 L 435 139 L 434 138 L 434 135 L 435 134 L 435 131 L 434 130 L 434 124 L 435 123 L 435 120 L 436 119 L 436 111 L 435 110 L 435 107 L 428 100 L 428 99 L 426 97 L 425 97 L 423 95 L 423 94 L 421 92 L 421 91 L 420 91 L 419 90 L 419 89 L 418 89 L 416 87 L 415 87 L 414 86 L 411 86 L 410 87 L 409 87 L 408 88 L 407 88 L 404 91 L 404 93 L 403 94 L 403 97 L 404 98 L 404 107 L 403 108 L 403 109 L 402 110 L 402 111 L 400 113 L 400 115 L 399 116 L 399 119 L 398 120 L 398 121 L 397 122 L 397 130 L 398 131 L 398 137 L 399 138 L 399 142 L 400 143 L 400 148 L 401 149 L 401 150 L 402 151 L 402 152 L 403 153 L 403 154 L 404 155 L 404 159 L 405 160 L 405 161 L 406 162 L 406 163 L 407 164 L 407 165 L 408 166 L 408 167 L 409 168 L 409 169 L 411 171 L 411 172 L 412 173 L 412 175 L 413 176 L 413 178 L 414 179 L 414 182 L 413 183 L 413 186 L 414 187 L 414 189 L 415 190 L 415 193 L 417 195 L 417 196 L 419 198 L 419 199 L 420 200 L 420 201 L 422 203 L 422 205 L 423 206 L 423 208 L 424 209 L 424 210 L 425 211 L 425 212 L 431 218 L 431 219 L 432 219 L 435 222 L 436 222 L 437 223 L 438 223 L 441 226 L 443 226 L 444 227 L 457 227 L 458 226 L 461 226 L 462 225 L 466 225 L 467 224 L 468 224 L 472 220 L 473 220 L 474 219 L 475 219 L 476 218 L 477 218 L 479 216 L 480 216 L 481 215 L 481 213 L 485 209 L 485 208 L 486 207 L 486 206 L 488 204 L 488 200 L 489 199 L 489 198 L 490 197 L 490 196 L 491 195 L 491 183 L 492 182 L 492 179 L 493 178 L 493 169 L 494 168 L 494 165 L 495 164 L 495 160 L 496 159 L 496 158 L 495 157 L 495 154 L 496 153 L 496 143 L 497 142 L 497 137 L 496 136 L 496 135 L 495 134 L 495 113 L 494 112 L 494 110 L 495 109 L 495 104 L 494 103 L 494 102 L 493 101 L 493 100 L 491 98 L 491 97 L 490 96 L 490 94 L 485 89 L 484 89 L 481 86 L 480 86 L 479 85 Z M 521 83 L 520 84 L 519 84 L 518 85 L 517 85 L 515 87 L 515 88 L 514 89 L 514 90 L 513 91 L 513 92 L 512 93 L 512 96 L 511 97 L 511 121 L 512 122 L 512 127 L 513 128 L 513 147 L 512 148 L 512 159 L 511 160 L 511 166 L 510 167 L 510 168 L 509 169 L 509 172 L 508 173 L 508 178 L 507 179 L 507 182 L 506 183 L 506 185 L 505 186 L 505 188 L 504 189 L 504 190 L 503 191 L 503 194 L 502 195 L 502 200 L 503 201 L 503 203 L 508 208 L 510 208 L 511 209 L 512 209 L 513 208 L 515 208 L 516 207 L 517 207 L 518 206 L 519 206 L 519 205 L 521 203 L 521 201 L 522 200 L 522 194 L 523 193 L 523 191 L 524 190 L 524 184 L 525 183 L 525 181 L 526 180 L 526 177 L 525 176 L 525 174 L 526 173 L 526 172 L 527 171 L 527 170 L 528 169 L 528 167 L 529 166 L 529 165 L 530 164 L 530 162 L 531 161 L 531 160 L 532 159 L 532 156 L 533 155 L 533 150 L 534 149 L 534 148 L 537 145 L 537 143 L 538 142 L 538 140 L 540 138 L 540 136 L 541 135 L 541 132 L 544 129 L 545 129 L 551 123 L 552 123 L 553 122 L 554 122 L 555 121 L 558 121 L 559 122 L 560 122 L 561 123 L 562 123 L 563 124 L 564 124 L 568 128 L 568 129 L 570 131 L 570 132 L 571 133 L 571 137 L 572 138 L 572 140 L 571 141 L 571 159 L 572 160 L 572 164 L 571 165 L 571 171 L 570 172 L 570 181 L 569 182 L 569 184 L 568 185 L 568 186 L 565 189 L 565 190 L 564 191 L 564 192 L 563 193 L 563 195 L 562 196 L 562 209 L 565 212 L 565 213 L 569 217 L 570 217 L 571 218 L 572 218 L 573 219 L 574 219 L 575 220 L 580 220 L 581 219 L 582 219 L 583 218 L 585 218 L 587 216 L 587 213 L 588 212 L 587 211 L 587 196 L 588 195 L 587 194 L 587 190 L 588 189 L 588 181 L 589 180 L 589 173 L 590 172 L 590 158 L 591 157 L 591 155 L 592 154 L 592 151 L 593 150 L 593 149 L 594 148 L 594 147 L 593 146 L 593 140 L 594 139 L 594 136 L 593 135 L 593 133 L 592 132 L 592 128 L 591 127 L 591 125 L 590 124 L 590 123 L 589 122 L 589 121 L 588 120 L 588 116 L 587 115 L 587 113 L 585 111 L 585 109 L 584 108 L 584 107 L 581 104 L 580 104 L 579 103 L 577 103 L 576 102 L 573 102 L 572 101 L 571 101 L 570 100 L 569 100 L 568 99 L 556 99 L 555 100 L 552 100 L 551 101 L 550 101 L 549 102 L 548 102 L 545 105 L 544 105 L 543 106 L 542 106 L 541 107 L 539 107 L 538 108 L 536 108 L 535 107 L 534 107 L 532 105 L 532 104 L 531 103 L 531 99 L 532 98 L 532 95 L 533 94 L 533 87 L 530 84 L 529 84 L 528 83 Z M 291 24 L 290 25 L 284 25 L 283 26 L 281 26 L 280 27 L 278 27 L 277 28 L 273 28 L 272 29 L 269 29 L 268 28 L 259 28 L 258 29 L 254 29 L 253 30 L 250 30 L 249 31 L 247 31 L 246 32 L 240 32 L 239 33 L 235 33 L 234 34 L 232 34 L 231 35 L 227 35 L 224 38 L 220 38 L 218 40 L 217 40 L 216 41 L 210 41 L 207 44 L 205 44 L 204 45 L 202 45 L 201 46 L 200 46 L 199 47 L 198 47 L 196 49 L 195 49 L 194 50 L 193 50 L 192 51 L 191 51 L 190 52 L 188 52 L 187 53 L 185 53 L 184 54 L 182 54 L 180 56 L 179 56 L 177 58 L 177 59 L 174 62 L 173 62 L 172 63 L 170 63 L 169 64 L 167 64 L 165 66 L 164 66 L 162 68 L 161 68 L 160 69 L 160 70 L 154 76 L 153 76 L 148 81 L 144 81 L 142 83 L 140 83 L 139 84 L 138 84 L 136 86 L 135 86 L 133 88 L 133 89 L 132 90 L 132 91 L 130 93 L 130 94 L 124 100 L 124 101 L 122 103 L 122 104 L 120 106 L 119 106 L 118 107 L 117 107 L 117 109 L 114 112 L 112 112 L 110 114 L 109 114 L 108 115 L 107 115 L 106 116 L 105 116 L 102 119 L 101 119 L 100 120 L 99 120 L 94 125 L 94 126 L 86 134 L 85 134 L 83 136 L 82 136 L 79 139 L 78 139 L 73 144 L 73 145 L 71 147 L 71 148 L 70 149 L 70 150 L 68 152 L 68 153 L 64 157 L 63 157 L 63 158 L 59 162 L 59 163 L 54 168 L 54 170 L 51 173 L 49 173 L 48 174 L 48 175 L 47 176 L 47 177 L 46 178 L 46 181 L 44 183 L 44 184 L 42 186 L 42 188 L 40 190 L 40 191 L 39 192 L 39 193 L 37 195 L 37 196 L 36 197 L 36 198 L 34 200 L 34 202 L 31 205 L 31 206 L 30 207 L 30 211 L 29 212 L 29 214 L 28 215 L 28 222 L 27 223 L 27 231 L 26 232 L 26 237 L 25 238 L 25 254 L 24 255 L 24 259 L 25 260 L 25 267 L 26 268 L 26 269 L 27 270 L 27 275 L 28 276 L 28 277 L 29 278 L 29 280 L 30 281 L 30 282 L 32 284 L 32 285 L 33 286 L 33 288 L 34 289 L 34 290 L 36 292 L 36 293 L 38 295 L 38 297 L 42 301 L 42 302 L 44 304 L 44 305 L 45 306 L 45 307 L 49 311 L 49 312 L 51 314 L 51 315 L 53 317 L 54 317 L 61 324 L 61 325 L 65 329 L 66 329 L 72 335 L 72 336 L 75 339 L 75 340 L 76 341 L 76 342 L 77 343 L 77 344 L 78 344 L 79 345 L 79 346 L 81 348 L 81 349 L 82 350 L 83 350 L 84 351 L 84 352 L 86 354 L 86 355 L 90 359 L 91 359 L 93 361 L 94 361 L 96 363 L 96 364 L 101 369 L 102 369 L 105 372 L 106 372 L 107 373 L 108 373 L 109 374 L 110 374 L 115 379 L 116 379 L 119 382 L 120 382 L 123 385 L 123 386 L 126 389 L 127 389 L 130 392 L 131 392 L 132 393 L 133 393 L 134 394 L 135 394 L 136 395 L 137 395 L 138 396 L 139 396 L 141 398 L 142 398 L 145 401 L 146 401 L 148 403 L 149 403 L 150 404 L 151 404 L 153 406 L 154 406 L 155 407 L 157 407 L 159 409 L 160 409 L 161 410 L 162 410 L 163 411 L 163 412 L 165 412 L 166 413 L 167 413 L 168 414 L 169 414 L 170 415 L 172 415 L 173 416 L 174 416 L 175 417 L 176 417 L 177 418 L 178 418 L 179 419 L 180 419 L 181 420 L 182 420 L 183 421 L 184 421 L 185 422 L 186 422 L 187 423 L 188 423 L 189 424 L 192 424 L 194 426 L 195 426 L 196 427 L 197 427 L 198 428 L 199 428 L 201 430 L 202 430 L 203 431 L 205 431 L 206 432 L 208 432 L 209 433 L 210 433 L 211 434 L 212 434 L 213 435 L 214 435 L 215 436 L 218 436 L 219 437 L 220 437 L 221 438 L 224 438 L 225 439 L 226 439 L 227 440 L 232 440 L 233 441 L 235 441 L 236 442 L 238 442 L 239 443 L 240 443 L 241 444 L 243 444 L 244 445 L 245 445 L 246 446 L 247 446 L 248 447 L 253 447 L 254 448 L 265 448 L 266 449 L 268 449 L 269 450 L 271 450 L 272 451 L 274 451 L 275 452 L 282 452 L 283 453 L 284 453 L 285 454 L 290 454 L 291 455 L 295 455 L 296 456 L 304 456 L 305 457 L 307 457 L 308 456 L 310 456 L 311 457 L 317 457 L 319 459 L 322 459 L 323 460 L 325 460 L 326 461 L 327 461 L 328 462 L 331 462 L 332 463 L 335 463 L 336 464 L 339 464 L 340 465 L 347 465 L 348 466 L 351 466 L 352 467 L 355 467 L 356 468 L 357 468 L 358 469 L 363 469 L 364 470 L 371 470 L 372 471 L 379 471 L 380 472 L 383 472 L 384 473 L 392 473 L 393 474 L 394 474 L 395 475 L 402 475 L 403 476 L 405 476 L 406 477 L 417 477 L 418 478 L 427 478 L 428 479 L 441 479 L 442 480 L 445 480 L 446 481 L 448 481 L 449 482 L 450 482 L 451 481 L 455 481 L 456 482 L 457 482 L 458 483 L 463 483 L 464 484 L 476 484 L 477 485 L 484 485 L 485 486 L 490 486 L 491 487 L 497 487 L 498 486 L 503 486 L 504 487 L 508 487 L 509 488 L 512 488 L 513 489 L 514 489 L 515 490 L 521 490 L 522 489 L 529 489 L 530 488 L 532 488 L 533 489 L 539 489 L 540 490 L 543 490 L 544 491 L 546 491 L 547 492 L 550 492 L 551 493 L 553 493 L 554 492 L 572 492 L 573 491 L 585 491 L 586 492 L 597 492 L 598 491 L 604 491 L 605 490 L 606 490 L 607 489 L 610 489 L 611 488 L 612 489 L 614 489 L 616 491 L 619 491 L 620 490 L 623 490 L 624 489 L 629 489 L 630 488 L 635 488 L 636 487 L 637 488 L 641 488 L 642 487 L 645 487 L 646 486 L 652 486 L 653 485 L 656 485 L 657 484 L 660 484 L 661 483 L 666 483 L 667 482 L 669 482 L 670 481 L 682 481 L 683 480 L 691 480 L 692 479 L 703 479 L 704 478 L 707 478 L 708 477 L 712 477 L 713 476 L 717 476 L 718 475 L 720 475 L 721 474 L 722 474 L 724 472 L 731 472 L 732 473 L 737 473 L 738 472 L 742 472 L 744 470 L 745 470 L 746 469 L 752 469 L 753 468 L 756 468 L 757 467 L 758 467 L 759 466 L 760 466 L 761 465 L 766 465 L 767 464 L 768 464 L 769 463 L 778 463 L 779 462 L 780 462 L 781 461 L 783 461 L 784 460 L 787 460 L 788 459 L 789 459 L 790 458 L 796 458 L 797 457 L 799 457 L 800 456 L 804 456 L 805 455 L 808 455 L 809 454 L 810 454 L 811 453 L 812 453 L 813 452 L 814 452 L 815 451 L 820 451 L 821 450 L 825 450 L 826 449 L 827 449 L 828 448 L 829 448 L 830 447 L 833 447 L 834 446 L 835 446 L 839 442 L 842 442 L 843 441 L 844 441 L 845 440 L 846 440 L 848 438 L 849 438 L 850 437 L 852 437 L 854 435 L 855 435 L 856 434 L 857 434 L 859 432 L 860 432 L 861 431 L 866 431 L 867 430 L 869 430 L 870 429 L 872 429 L 873 428 L 874 428 L 875 427 L 878 427 L 879 426 L 879 425 L 882 422 L 883 422 L 885 420 L 886 420 L 890 416 L 893 416 L 894 415 L 895 415 L 896 414 L 897 414 L 898 413 L 900 413 L 901 412 L 902 412 L 904 410 L 905 410 L 910 405 L 911 405 L 915 401 L 916 401 L 919 398 L 920 398 L 921 397 L 922 397 L 923 396 L 924 396 L 924 395 L 926 393 L 927 393 L 929 391 L 930 391 L 931 390 L 931 389 L 937 383 L 937 382 L 938 381 L 939 381 L 946 374 L 947 374 L 948 373 L 949 373 L 951 371 L 951 370 L 953 368 L 953 367 L 954 366 L 954 365 L 962 357 L 962 356 L 964 354 L 964 352 L 966 350 L 966 349 L 967 348 L 967 346 L 968 345 L 968 344 L 970 342 L 970 341 L 971 340 L 971 338 L 973 336 L 973 335 L 974 334 L 974 333 L 976 331 L 976 330 L 977 329 L 977 328 L 979 326 L 979 325 L 980 324 L 980 323 L 981 322 L 981 319 L 982 318 L 982 317 L 983 316 L 983 312 L 984 311 L 984 309 L 985 308 L 985 306 L 986 305 L 986 303 L 987 302 L 987 301 L 988 300 L 988 299 L 989 298 L 989 296 L 988 295 L 988 292 L 989 291 L 989 289 L 990 288 L 990 286 L 989 285 L 989 284 L 988 283 L 988 282 L 987 281 L 987 280 L 986 279 L 986 271 L 985 270 L 985 267 L 984 266 L 984 264 L 980 260 L 980 258 L 979 257 L 979 255 L 977 253 L 977 252 L 976 251 L 976 250 L 975 249 L 975 247 L 974 246 L 974 245 L 973 244 L 973 243 L 972 242 L 972 239 L 971 238 L 971 236 L 970 235 L 970 234 L 969 233 L 969 232 L 968 231 L 968 230 L 967 229 L 967 228 L 964 225 L 964 224 L 963 223 L 963 222 L 961 220 L 961 219 L 957 215 L 957 214 L 956 213 L 955 213 L 952 210 L 952 209 L 949 206 L 949 205 L 943 199 L 942 199 L 939 196 L 939 195 L 938 194 L 938 193 L 937 192 L 936 192 L 930 186 L 930 185 L 924 179 L 923 179 L 919 175 L 918 175 L 917 174 L 916 174 L 914 172 L 913 172 L 911 170 L 910 170 L 909 169 L 908 169 L 905 166 L 904 166 L 899 161 L 898 161 L 897 160 L 896 160 L 892 156 L 891 156 L 886 151 L 886 150 L 885 150 L 883 148 L 882 148 L 879 145 L 879 144 L 876 141 L 875 141 L 873 139 L 872 139 L 871 138 L 869 138 L 868 137 L 867 137 L 864 134 L 863 134 L 862 133 L 861 133 L 860 132 L 858 132 L 854 128 L 853 128 L 852 127 L 851 127 L 847 123 L 846 123 L 845 122 L 844 122 L 843 121 L 842 121 L 839 118 L 837 118 L 835 116 L 834 116 L 833 115 L 832 115 L 831 114 L 830 114 L 829 113 L 828 113 L 827 112 L 826 112 L 825 111 L 824 111 L 823 110 L 821 110 L 820 109 L 819 109 L 818 108 L 817 108 L 816 107 L 815 107 L 814 106 L 812 106 L 811 105 L 810 105 L 809 104 L 808 104 L 807 103 L 806 103 L 805 102 L 804 102 L 803 101 L 801 101 L 800 100 L 798 100 L 797 99 L 795 99 L 794 98 L 793 98 L 792 99 L 791 99 L 790 98 L 789 98 L 788 97 L 787 97 L 786 96 L 785 96 L 783 94 L 779 94 L 777 92 L 776 92 L 775 91 L 773 91 L 772 90 L 771 90 L 770 89 L 769 89 L 768 88 L 764 88 L 763 87 L 762 87 L 761 86 L 758 86 L 757 85 L 755 85 L 754 84 L 753 84 L 752 83 L 749 83 L 745 79 L 743 79 L 742 78 L 741 78 L 739 76 L 738 76 L 737 75 L 736 75 L 735 74 L 734 74 L 733 73 L 732 73 L 729 70 L 727 70 L 726 69 L 723 69 L 722 68 L 718 68 L 717 67 L 716 67 L 715 66 L 713 66 L 712 65 L 711 65 L 710 64 L 709 64 L 708 63 L 706 63 L 705 62 L 704 62 L 703 61 L 702 61 L 701 60 L 699 60 L 698 59 L 697 59 L 696 58 L 695 58 L 694 57 L 689 57 L 688 56 L 687 56 L 686 55 L 685 55 L 684 54 L 679 54 L 678 53 L 675 53 L 674 52 L 673 52 L 672 51 L 665 51 L 664 50 L 659 50 L 658 51 L 656 51 L 655 50 L 654 50 L 653 49 L 648 49 L 647 48 L 646 48 L 645 47 L 643 47 L 642 46 L 635 46 L 634 45 L 630 45 L 629 44 L 628 45 L 625 45 L 624 44 L 619 44 L 618 43 L 616 43 L 615 42 L 613 42 L 612 41 L 610 41 L 609 40 L 602 40 L 601 39 L 569 39 L 568 40 L 566 40 L 565 39 L 564 39 L 563 38 L 555 38 L 554 37 L 537 37 L 536 38 L 529 38 L 528 37 L 525 37 L 524 36 L 521 36 L 520 35 L 518 35 L 517 36 L 514 36 L 513 37 L 505 37 L 504 38 L 500 38 L 499 39 L 489 39 L 488 38 L 485 38 L 484 37 L 469 37 L 468 38 L 467 38 L 466 39 L 433 39 L 432 40 L 408 40 L 407 41 L 403 41 L 402 42 L 400 42 L 399 43 L 393 43 L 392 44 L 379 44 L 378 43 L 372 43 L 371 42 L 369 42 L 368 43 L 367 43 L 366 44 L 365 44 L 364 45 L 363 45 L 362 46 L 347 46 L 346 47 L 341 47 L 340 48 L 328 48 L 328 49 L 327 50 L 326 50 L 325 51 L 322 51 L 321 52 L 318 52 L 317 53 L 315 53 L 314 54 L 312 54 L 311 55 L 310 55 L 309 56 L 308 56 L 307 57 L 298 57 L 297 58 L 293 58 L 292 57 L 291 57 L 290 58 L 288 58 L 287 59 L 285 59 L 284 60 L 280 60 L 279 61 L 271 61 L 270 62 L 268 62 L 267 63 L 265 63 L 264 64 L 258 64 L 255 61 L 255 60 L 254 59 L 254 52 L 255 51 L 255 50 L 256 49 L 257 49 L 259 47 L 264 47 L 265 46 L 276 46 L 277 45 L 280 45 L 281 44 L 286 44 L 287 43 L 296 43 L 297 42 L 305 42 L 306 41 L 311 41 L 312 40 L 314 40 L 316 38 L 317 38 L 318 37 L 318 36 L 319 35 L 319 29 L 318 28 L 318 27 L 317 26 L 316 26 L 315 25 L 313 25 L 312 24 Z M 61 181 L 62 180 L 66 180 L 69 183 L 69 192 L 67 194 L 67 195 L 65 197 L 65 198 L 64 199 L 64 204 L 63 205 L 63 207 L 62 208 L 62 209 L 61 210 L 61 211 L 60 212 L 60 218 L 59 219 L 59 220 L 57 222 L 57 228 L 56 229 L 56 234 L 55 235 L 55 237 L 54 238 L 54 243 L 55 244 L 55 248 L 54 249 L 54 251 L 53 252 L 53 257 L 54 258 L 54 262 L 55 263 L 55 267 L 56 268 L 56 270 L 57 271 L 57 280 L 56 281 L 56 282 L 52 286 L 48 286 L 42 280 L 42 278 L 41 277 L 41 270 L 40 269 L 40 267 L 41 266 L 41 264 L 40 263 L 40 256 L 39 255 L 40 254 L 40 250 L 39 249 L 39 247 L 40 246 L 40 243 L 39 242 L 39 238 L 40 237 L 40 234 L 41 233 L 41 226 L 42 225 L 42 222 L 43 221 L 43 219 L 44 218 L 44 217 L 45 216 L 45 214 L 46 213 L 46 212 L 47 211 L 47 209 L 48 208 L 48 206 L 49 205 L 49 202 L 50 201 L 50 200 L 51 199 L 51 198 L 52 197 L 52 196 L 54 194 L 54 189 L 58 185 L 58 184 L 59 183 L 59 182 L 60 181 Z M 476 62 L 477 61 L 478 62 L 481 62 L 482 63 L 484 63 L 485 64 L 486 64 L 487 65 L 516 65 L 517 66 L 522 66 L 523 65 L 542 65 L 543 66 L 545 66 L 546 67 L 549 67 L 550 68 L 557 68 L 558 69 L 560 69 L 561 70 L 584 70 L 585 71 L 586 71 L 588 73 L 589 72 L 590 73 L 597 73 L 598 74 L 616 74 L 617 75 L 618 75 L 619 76 L 622 76 L 623 77 L 626 77 L 627 78 L 636 78 L 637 79 L 646 79 L 647 80 L 648 80 L 650 82 L 653 82 L 654 83 L 657 83 L 658 84 L 659 84 L 660 85 L 667 85 L 668 86 L 679 86 L 680 87 L 688 87 L 689 88 L 691 88 L 692 89 L 693 88 L 694 89 L 697 89 L 698 90 L 700 90 L 701 91 L 703 91 L 704 92 L 707 92 L 708 93 L 709 93 L 710 94 L 711 94 L 713 96 L 715 96 L 716 97 L 718 97 L 719 98 L 720 98 L 721 99 L 723 99 L 724 100 L 729 100 L 731 102 L 732 102 L 733 103 L 737 103 L 738 104 L 741 104 L 742 105 L 743 105 L 745 107 L 746 107 L 747 108 L 748 108 L 749 109 L 751 109 L 752 110 L 754 110 L 755 111 L 758 111 L 760 113 L 766 113 L 767 114 L 770 114 L 772 116 L 774 116 L 775 117 L 776 117 L 777 118 L 780 118 L 782 120 L 784 120 L 785 121 L 786 121 L 787 122 L 789 122 L 790 123 L 791 123 L 792 124 L 793 124 L 795 126 L 796 126 L 797 127 L 798 127 L 799 128 L 800 128 L 801 129 L 802 129 L 803 130 L 804 130 L 805 131 L 806 131 L 807 132 L 808 132 L 809 133 L 810 133 L 811 134 L 813 134 L 814 135 L 816 135 L 817 136 L 818 136 L 819 137 L 821 137 L 822 138 L 823 138 L 824 139 L 827 139 L 828 140 L 829 140 L 831 142 L 833 142 L 834 143 L 836 143 L 837 144 L 838 144 L 839 145 L 840 145 L 841 146 L 841 147 L 842 148 L 843 148 L 844 149 L 847 149 L 849 151 L 851 151 L 852 152 L 853 152 L 854 153 L 856 153 L 857 154 L 859 154 L 861 156 L 862 156 L 867 161 L 868 161 L 879 172 L 881 172 L 882 173 L 883 173 L 884 174 L 885 174 L 886 175 L 887 175 L 888 176 L 888 177 L 893 182 L 894 182 L 896 184 L 896 185 L 899 188 L 900 188 L 902 190 L 903 190 L 904 191 L 905 191 L 913 199 L 914 199 L 916 201 L 917 201 L 920 204 L 920 205 L 922 207 L 922 208 L 926 212 L 926 213 L 927 214 L 927 215 L 928 216 L 928 217 L 930 219 L 931 219 L 933 221 L 933 222 L 941 230 L 941 231 L 943 233 L 943 234 L 945 236 L 945 237 L 946 238 L 946 239 L 948 241 L 948 242 L 949 243 L 949 245 L 950 246 L 950 248 L 951 249 L 951 251 L 952 252 L 952 253 L 953 254 L 953 256 L 954 257 L 954 259 L 955 260 L 955 274 L 954 275 L 954 277 L 953 278 L 953 280 L 954 281 L 954 284 L 953 285 L 953 286 L 952 287 L 952 290 L 951 291 L 951 293 L 952 294 L 952 295 L 951 296 L 951 298 L 950 299 L 950 307 L 948 309 L 948 312 L 947 313 L 947 314 L 946 315 L 946 316 L 943 319 L 943 320 L 942 321 L 942 324 L 941 325 L 941 327 L 940 328 L 940 329 L 938 331 L 938 332 L 933 337 L 933 338 L 932 339 L 932 340 L 925 347 L 924 347 L 919 352 L 919 353 L 918 354 L 918 356 L 917 357 L 917 358 L 914 361 L 914 362 L 910 366 L 909 366 L 907 368 L 906 368 L 902 372 L 901 372 L 900 373 L 899 373 L 896 376 L 896 377 L 895 378 L 894 378 L 891 381 L 890 381 L 888 383 L 887 383 L 885 385 L 884 385 L 876 393 L 874 393 L 872 395 L 871 395 L 870 396 L 869 396 L 868 397 L 866 397 L 865 398 L 864 398 L 863 399 L 862 399 L 861 400 L 859 400 L 858 401 L 855 401 L 854 402 L 853 402 L 851 404 L 850 404 L 848 406 L 847 406 L 845 408 L 844 408 L 843 409 L 840 409 L 838 411 L 836 411 L 835 412 L 834 412 L 831 415 L 829 415 L 828 416 L 824 416 L 822 418 L 821 418 L 818 421 L 815 421 L 814 422 L 813 422 L 811 424 L 810 424 L 808 426 L 807 426 L 806 427 L 805 427 L 804 428 L 803 428 L 802 429 L 801 429 L 800 430 L 798 430 L 797 431 L 796 431 L 795 432 L 793 432 L 792 433 L 790 433 L 789 434 L 783 434 L 782 435 L 774 435 L 773 436 L 765 436 L 764 437 L 759 437 L 758 438 L 753 438 L 752 439 L 749 439 L 748 440 L 743 440 L 742 441 L 740 441 L 739 442 L 738 442 L 737 443 L 735 443 L 734 444 L 732 444 L 731 443 L 730 444 L 728 444 L 727 445 L 725 445 L 724 446 L 719 446 L 718 447 L 716 447 L 715 448 L 703 448 L 701 450 L 700 450 L 699 451 L 696 451 L 695 452 L 689 452 L 688 453 L 687 453 L 686 454 L 683 454 L 682 455 L 657 455 L 656 456 L 653 456 L 652 457 L 648 457 L 647 458 L 643 458 L 642 459 L 638 459 L 637 460 L 613 460 L 612 461 L 609 461 L 608 462 L 607 461 L 590 461 L 589 462 L 584 462 L 583 463 L 578 463 L 577 462 L 574 462 L 573 463 L 566 463 L 565 462 L 563 462 L 562 463 L 556 463 L 555 464 L 522 464 L 521 465 L 504 465 L 503 464 L 497 464 L 496 463 L 486 463 L 485 464 L 480 464 L 479 463 L 470 463 L 469 462 L 468 462 L 467 463 L 465 463 L 464 464 L 463 463 L 461 463 L 460 462 L 447 462 L 446 461 L 437 461 L 436 460 L 435 460 L 434 459 L 433 459 L 432 458 L 412 458 L 411 457 L 409 457 L 408 456 L 405 456 L 404 455 L 399 455 L 398 454 L 397 454 L 396 453 L 386 453 L 385 452 L 383 452 L 382 451 L 378 451 L 377 452 L 375 452 L 374 451 L 371 451 L 370 450 L 365 450 L 364 449 L 362 449 L 361 448 L 359 448 L 358 447 L 352 447 L 351 446 L 349 446 L 348 445 L 347 445 L 346 444 L 344 444 L 343 443 L 341 443 L 340 442 L 336 442 L 335 441 L 333 441 L 332 440 L 327 440 L 325 438 L 323 438 L 322 437 L 318 437 L 316 435 L 315 435 L 314 434 L 303 434 L 302 433 L 301 433 L 300 432 L 296 432 L 295 431 L 293 431 L 292 430 L 283 430 L 282 429 L 279 429 L 278 428 L 274 428 L 273 427 L 271 427 L 270 426 L 269 426 L 268 425 L 267 425 L 265 423 L 264 423 L 260 419 L 259 419 L 258 418 L 257 418 L 256 417 L 255 417 L 254 416 L 250 416 L 248 414 L 246 414 L 245 413 L 243 413 L 242 412 L 241 412 L 240 411 L 239 411 L 238 410 L 237 410 L 236 409 L 232 409 L 231 408 L 230 408 L 229 407 L 228 407 L 227 406 L 225 406 L 224 405 L 222 405 L 221 404 L 220 404 L 219 403 L 218 403 L 217 402 L 216 402 L 215 401 L 214 401 L 213 400 L 211 400 L 210 399 L 209 399 L 208 398 L 207 398 L 205 396 L 203 396 L 202 395 L 200 395 L 199 394 L 197 394 L 196 393 L 193 393 L 192 392 L 191 392 L 190 391 L 189 391 L 188 390 L 187 390 L 185 388 L 184 388 L 182 386 L 181 386 L 180 385 L 179 385 L 178 384 L 177 384 L 175 382 L 174 382 L 172 380 L 171 380 L 168 377 L 167 377 L 161 371 L 160 371 L 155 366 L 154 366 L 148 360 L 147 360 L 146 359 L 145 359 L 137 351 L 136 351 L 132 347 L 131 347 L 130 346 L 130 345 L 129 344 L 128 344 L 126 342 L 125 342 L 123 340 L 123 339 L 122 338 L 122 337 L 111 326 L 111 325 L 110 325 L 106 321 L 106 320 L 104 318 L 104 317 L 102 315 L 102 314 L 101 313 L 101 312 L 99 310 L 99 309 L 97 307 L 97 306 L 92 301 L 92 298 L 91 297 L 91 296 L 90 295 L 90 294 L 89 293 L 89 292 L 87 290 L 87 288 L 86 287 L 86 285 L 84 283 L 84 282 L 83 281 L 83 279 L 82 278 L 82 276 L 81 275 L 81 264 L 80 263 L 80 261 L 79 260 L 79 255 L 78 254 L 78 249 L 77 248 L 77 246 L 78 245 L 78 244 L 79 243 L 79 235 L 80 234 L 80 230 L 81 229 L 81 226 L 80 225 L 80 220 L 81 219 L 81 218 L 82 217 L 82 216 L 83 215 L 83 209 L 84 208 L 84 206 L 85 205 L 85 201 L 86 200 L 86 198 L 87 197 L 87 196 L 88 195 L 88 194 L 89 193 L 89 191 L 90 190 L 90 187 L 91 186 L 91 185 L 93 183 L 93 182 L 95 180 L 95 178 L 97 176 L 97 175 L 99 173 L 99 172 L 109 162 L 111 162 L 112 161 L 113 161 L 114 160 L 115 160 L 116 159 L 116 158 L 117 157 L 117 156 L 122 151 L 124 151 L 128 147 L 129 147 L 132 144 L 133 144 L 137 140 L 137 139 L 139 137 L 141 137 L 143 135 L 145 135 L 151 129 L 155 129 L 158 126 L 162 126 L 163 125 L 164 125 L 166 123 L 167 123 L 168 122 L 171 122 L 172 121 L 173 121 L 175 119 L 177 119 L 178 118 L 180 118 L 181 117 L 182 117 L 183 116 L 184 116 L 185 115 L 186 115 L 187 114 L 188 114 L 189 113 L 190 113 L 191 112 L 192 112 L 193 111 L 195 111 L 196 110 L 197 110 L 199 108 L 200 108 L 201 107 L 205 107 L 206 106 L 207 106 L 208 105 L 210 105 L 211 104 L 213 104 L 214 103 L 217 103 L 218 102 L 219 102 L 220 101 L 221 101 L 223 99 L 226 99 L 227 98 L 230 98 L 231 97 L 232 97 L 233 96 L 234 96 L 235 95 L 236 95 L 237 94 L 238 94 L 239 93 L 242 93 L 243 92 L 245 92 L 246 91 L 251 91 L 252 90 L 255 90 L 256 89 L 258 89 L 259 88 L 264 88 L 265 87 L 267 87 L 268 86 L 276 86 L 277 85 L 281 85 L 282 84 L 283 84 L 284 83 L 286 83 L 287 82 L 291 82 L 292 81 L 293 81 L 294 80 L 299 80 L 300 79 L 306 79 L 307 78 L 313 78 L 314 79 L 315 79 L 316 78 L 317 78 L 319 76 L 322 76 L 323 75 L 326 75 L 327 74 L 331 74 L 332 73 L 335 73 L 336 72 L 345 72 L 346 71 L 348 71 L 349 70 L 384 70 L 385 69 L 391 69 L 392 68 L 395 68 L 396 67 L 401 67 L 402 66 L 406 66 L 407 67 L 411 67 L 412 66 L 414 66 L 415 65 L 422 65 L 423 64 L 430 64 L 431 65 L 437 65 L 438 64 L 440 64 L 441 65 L 468 65 L 469 64 L 470 64 L 471 63 L 473 63 L 474 62 Z"/>
  </g>
</svg>
